{
 "accessors": [
  {
   "bufferView": 0,
   "componentType": 5126,
   "count": 1617,
   "max": [
    1.0,
    1.0,
    1.0
   ],
   "min": [
    -1.0,
    -1.0,
    -1.0
   ],
   "type": "VEC3"
  },
  {
   "bufferView": 1,
   "componentType": 5126,
   "count": 1617,
   "type": "VEC3"
  },
  {
   "bufferView": 2,
   "componentType": 5125,
   "count": 9216,
   "type": "SCALAR"
  },
  {
   "bufferView": 3,
   "componentType": 5126,
   "count": 1261,
   "max": [
    1.23,
    0.05,
    1.23
   ],
   "min": [
    -1.23,
    -0.05,
    -1.23
   ],
   "type": "VEC3"
  },
  {
   "bufferView": 4,
   "componentType": 5126,
   "count": 1261,
   "type": "VEC3"
  },
  {
   "bufferView": 5,
   "componentType": 5125,
   "count": 6912,
   "type": "SCALAR"
  }
 ],
 "asset": {
  "generator": "QQ make_orb.py",
  "version": "2.0"
 },
 "bufferViews": [
  {
   "buffer": 0,
   "byteLength": 19404,
   "byteOffset": 0,
   "target": 34962
  },
  {
   "buffer": 0,
   "byteLength": 19404,
   "byteOffset": 19404,
   "target": 34962
  },
  {
   "buffer": 0,
   "byteLength": 36864,
   "byteOffset": 38808,
   "target": 34963
  },
  {
   "buffer": 0,
   "byteLength": 15132,
   "byteOffset": 75672,
   "target": 34962
  },
  {
   "buffer": 0,
   "byteLength": 15132,
   "byteOffset": 90804,
   "target": 34962
  },
  {
   "buffer": 0,
   "byteLength": 27648,
   "byteOffset": 105936,
   "target": 34963
  }
 ],
 "buffers": [
  {
   "byteLength": 133584,
   "uri": "data:application/octet-stream;base64,"
  }
 ],
 "materials": [
  {
   "name": "Ember",
   "pbrMetallicRoughness": {
    "baseColorFactor": [
     1.0,
     0.14,
     0.01,
     1.0
    ],
    "metallicFactor": 0.15,
    "roughnessFactor": 0.35
   }
  },
  {
   "emissiveFactor": [
    0.03,
    0.45,
    1.0
   ],
   "name": "Glow",
   "pbrMetallicRoughness": {
    "baseColorFactor": [
     0.02,
     0.35,
     1.0,
     1.0
    ],
    "metallicFactor": 0.0,
    "roughnessFactor": 0.5
   }
  }
 ],
 "meshes": [
  {
   "name": "Body",
   "primitives": [
    {
     "attributes": {
      "NORMAL": 1,
      "POSITION": 0
     },
     "indices": 2,
     "material": 0
    }
   ]
  },
  {
   "name": "Band",
   "primitives": [
    {
     "attributes": {
      "NORMAL": 4,
      "POSITION": 3
     },
     "indices": 5,
     "material": 1
    }
   ]
  }
 ],
 "nodes": [
  {
   "mesh": 0,
   "name": "Body"
  },
  {
   "mesh": 1,
   "name": "Band"
  }
 ],
 "scene": 0,
 "scenes": [
  {
   "nodes": [
    0,
    1
   ]
  }
 ]
}
